<svg xmlns="http://www.w3.org/2000/svg" width="32" height="32" fill="none"><g clip-path="url(#a)"><path fill="#FFF6EC" d="M32 16c0-8.837-7.163-16-16-16S0 7.163 0 16s7.163 16 16 16 16-7.163 16-16Z"/><g fill="#4522A9" filter="url(#b)"><path d="M6.15 20.444 14.294 8h1.76L19.2 20.444h-1.76L14.666 8.96h.711L8.072 20.444H6.15Zm3.023-3.11.782-1.423h6.987l.249 1.422H9.173Z"/><path d="M21.06 21.909c-.726 0-1.35-.128-1.873-.384a2.83 2.83 0 0 1-1.184-1.136c-.277-.502-.416-1.104-.416-1.808 0-1.067.181-1.995.544-2.784.363-.8.88-1.424 1.552-1.872.683-.448 1.494-.672 2.432-.672.726 0 1.366.144 1.92.432a3.16 3.16 0 0 1 1.328 1.264c.33.544.496 1.194.496 1.952 0 .725-.123 1.392-.368 2a4.623 4.623 0 0 1-1.008 1.584c-.427.448-.933.8-1.52 1.056a4.886 4.886 0 0 1-1.904.368Zm-5.505 3.008 2.304-11.584h1.472l-.448 2.192-.496 1.968-.224 2.016-1.072 5.408h-1.536Zm5.44-4.352c.64 0 1.206-.155 1.696-.464.502-.31.896-.731 1.184-1.264.288-.544.432-1.163.432-1.856 0-.747-.218-1.328-.656-1.744-.437-.427-1.061-.64-1.872-.64-.63 0-1.2.154-1.712.464-.501.298-.896.72-1.184 1.264-.277.533-.416 1.152-.416 1.856 0 .736.219 1.317.656 1.744.438.426 1.061.64 1.872.64Z"/></g></g><defs><clipPath id="a"><path fill="#fff" d="M0 0h32v32H0z"/></clipPath><filter id="b" width="27.709" height="24.917" x="2.151" y="8" color-interpolation-filters="sRGB" filterUnits="userSpaceOnUse"><feFlood flood-opacity="0" result="BackgroundImageFix"/><feColorMatrix in="SourceAlpha" result="hardAlpha" values="0 0 0 0 0 0 0 0 0 0 0 0 0 0 0 0 0 0 127 0"/><feOffset dy="4"/><feGaussianBlur stdDeviation="2"/><feComposite in2="hardAlpha" operator="out"/><feColorMatrix values="0 0 0 0 0 0 0 0 0 0 0 0 0 0 0 0 0 0 0.25 0"/><feBlend in2="BackgroundImageFix" result="effect1_dropShadow_608_7"/><feBlend in="SourceGraphic" in2="effect1_dropShadow_608_7" result="shape"/></filter></defs></svg>